<svg width="85" height="76" viewBox="0 0 85 76" fill="none" xmlns="http://www.w3.org/2000/svg">
    <g filter="url(#filter0_d)">
        <circle cx="38" cy="38" r="21" fill="#FFA41D" fill-opacity="0.55"/>
    </g>
    <g clip-path="url(#clip0)">
        <path d="M44.845 41.3053C47.9793 41.3053 50.5294 38.7553 50.5294 35.6208C50.5294 32.4864 47.9794 29.9364 44.845 29.9364C41.7105 29.9364 39.1605 32.4864 39.1605 35.6208C39.1605 38.7553 41.7105 41.3053 44.845 41.3053ZM44.845 31.5477C47.0908 31.5477 48.9181 33.3749 48.9181 35.6208C48.9181 37.8667 47.0909 39.694 44.845 39.694C42.599 39.694 40.7719 37.8668 40.7719 35.6208C40.7719 33.375 42.599 31.5477 44.845 31.5477Z" fill="#943EB2"/>
        <path d="M59.0468 41.3053C61.3156 41.3053 63.364 39.9591 64.2653 37.8756C64.442 37.4673 64.2541 36.9931 63.8457 36.8163C63.4374 36.6395 62.9631 36.8275 62.7864 37.2359C62.1405 38.7291 60.6726 39.694 59.0468 39.694C56.8008 39.694 54.9736 37.8668 54.9736 35.6208C54.9736 33.3749 56.8008 31.5477 59.0468 31.5477C60.6769 31.5477 62.1464 32.516 62.7904 34.0146C62.9661 34.4234 63.44 34.6122 63.8487 34.4366C64.2576 34.2609 64.4464 33.7872 64.2708 33.3783C63.3722 31.2874 61.3216 29.9364 59.0468 29.9364C55.9123 29.9364 53.3623 32.4864 53.3623 35.6208C53.3623 38.7553 55.9124 41.3053 59.0468 41.3053Z" fill="#943EB2"/>
        <path d="M35.1473 39.792C32.0129 39.792 29.4629 42.342 29.4629 45.4765C29.4629 48.6108 32.0129 51.1609 35.1473 51.1609C38.2818 51.1609 40.8318 48.6109 40.8318 45.4765C40.8317 42.342 38.2817 39.792 35.1473 39.792ZM35.1473 49.5496C32.9014 49.5496 31.0742 47.7223 31.0742 45.4765C31.0742 43.2305 32.9014 41.4033 35.1473 41.4033C37.3933 41.4033 39.2204 43.2305 39.2204 45.4765C39.2203 47.7223 37.3932 49.5496 35.1473 49.5496Z" fill="#943EB2"/>
        <path d="M68.7445 51.1609C71.8789 51.1609 74.429 48.6109 74.429 45.4765C74.429 42.342 71.879 39.792 68.7445 39.792C65.61 39.792 63.0601 42.342 63.0601 45.4765C63.0601 48.6108 65.6101 51.1609 68.7445 51.1609ZM68.7445 41.4033C70.9904 41.4033 72.8176 43.2305 72.8176 45.4765C72.8176 47.7223 70.9905 49.5496 68.7445 49.5496C66.4985 49.5496 64.6714 47.7224 64.6714 45.4765C64.6714 43.2305 66.4986 41.4033 68.7445 41.4033Z" fill="#943EB2"/>
        <path d="M83.7797 56.9712C83.5834 56.5717 83.1004 56.4072 82.7013 56.6032C82.3019 56.7995 82.1372 57.2823 82.3334 57.6816C83.2871 59.6231 82.9001 61.9551 81.3707 63.4847L72.0565 72.7987C71.9115 72.9436 71.6757 72.9436 71.5308 72.7987L62.2167 63.4846C60.2457 61.5136 60.2457 58.3065 62.2167 56.3355C64.1878 54.3646 67.3948 54.3647 69.3657 56.3355L71.2239 58.1936C71.5386 58.5083 72.0487 58.5083 72.3632 58.1936L74.2214 56.3355C75.7297 54.8272 78.0377 54.4284 79.9643 55.343C80.3665 55.534 80.8469 55.3626 81.0377 54.9607C81.2285 54.5587 81.0573 54.0782 80.6553 53.8873C78.1146 52.6812 75.0711 53.2072 73.0821 55.1962L71.7936 56.4846L70.5051 55.1962C68.3141 53.0053 64.965 52.6613 62.4102 54.164C62.2908 54.0638 62.169 53.9664 62.0443 53.8741C60.5901 52.7971 59.639 51.265 59.3661 49.5603C59.0818 47.7841 58.1682 46.155 56.7936 44.9731C55.9906 44.2827 55.0646 43.7771 54.0409 43.4703C53.6148 43.3427 53.1657 43.5845 53.0379 44.0107C52.9102 44.437 53.1521 44.886 53.5784 45.0137C54.3841 45.2553 55.1126 45.6527 55.7431 46.1949C56.845 47.1423 57.5476 48.3942 57.775 49.815C58.115 51.9383 59.2905 53.8397 61.0852 55.1688C61.0891 55.1717 61.0927 55.175 61.0967 55.1779C61.0904 55.1842 61.0836 55.19 61.0773 55.1963C58.478 57.7956 58.478 62.0248 61.0773 64.6241L61.2116 64.7584C60.2647 65.5006 59.1174 65.9475 57.927 66.029C57.0255 66.0907 56.1477 65.9584 55.3188 65.6359C53.3459 64.8683 51.1733 64.8683 49.2013 65.6358C48.3707 65.959 47.4909 66.0913 46.5872 66.0287C43.6409 65.8247 41.2431 63.4521 41.0099 60.5099C40.858 58.594 41.593 56.7683 43.0264 55.5011C44.6096 54.1017 45.6067 52.1888 45.834 50.115C45.9992 48.6075 46.7249 47.2246 47.8773 46.2209C48.5405 45.6433 49.3116 45.2279 50.1689 44.9863C50.5972 44.8657 50.8465 44.4206 50.7259 43.9923C50.6053 43.5642 50.1604 43.3145 49.7319 43.4354C48.6435 43.7421 47.6634 44.2704 46.8191 45.0058C45.3603 46.276 44.4416 48.0282 44.2321 49.9394C44.0487 51.6139 43.2414 53.1604 41.9592 54.2939C40.1427 55.8997 39.2111 58.2118 39.4035 60.6373C39.6994 64.3687 42.7398 67.3775 46.4759 67.6361C46.6593 67.6488 46.8417 67.6551 47.0236 67.6551C47.9743 67.6551 48.9012 67.4816 49.7856 67.1374C51.3811 66.5166 53.1386 66.5167 54.7346 67.1376C55.7859 67.5466 56.8968 67.7145 58.0369 67.6365C59.6138 67.5288 61.1288 66.9168 62.3567 65.9036L70.3914 73.9383C70.778 74.3249 71.2858 74.5182 71.7936 74.5182C72.3014 74.5182 72.8093 74.3249 73.1958 73.9383L82.5099 64.6242C84.5271 62.6069 85.0373 59.5316 83.7797 56.9712Z" fill="#943EB2"/>
    </g>
    <defs>
        <filter id="filter0_d" x="0" y="0" width="76" height="76" filterUnits="userSpaceOnUse" color-interpolation-filters="sRGB">
            <feFlood flood-opacity="0" result="BackgroundImageFix"/>
            <feColorMatrix in="SourceAlpha" type="matrix" values="0 0 0 0 0 0 0 0 0 0 0 0 0 0 0 0 0 0 127 0"/>
            <feMorphology radius="7" operator="dilate" in="SourceAlpha" result="effect1_dropShadow"/>
            <feOffset/>
            <feGaussianBlur stdDeviation="5"/>
            <feColorMatrix type="matrix" values="0 0 0 0 1 0 0 0 0 0.645 0 0 0 0 0.1125 0 0 0 0.84 0"/>
            <feBlend mode="normal" in2="BackgroundImageFix" result="effect1_dropShadow"/>
            <feBlend mode="normal" in="SourceGraphic" in2="effect1_dropShadow" result="shape"/>
        </filter>
        <clipPath id="clip0">
            <rect width="55" height="55" fill="white" transform="translate(29.4629 24.7268)"/>
        </clipPath>
    </defs>
</svg>
