<svg width="100" height="100" viewBox="0 0 100 100" fill="none" xmlns="http://www.w3.org/2000/svg">
<path d="M77.8371 41.8094C86.6662 40.7981 93.5484 33.2885 93.5484 24.1933C93.5484 14.4111 85.5887 6.45142 75.8065 6.45142C66.7113 6.45142 59.2016 13.3337 58.1904 22.1627C55.5887 21.3966 52.8452 20.9675 50 20.9675C33.992 20.9675 20.9678 33.9917 20.9678 49.9997C20.9678 66.0078 33.992 79.032 50 79.032C66.0081 79.032 79.0323 66.0078 79.0323 49.9997C79.0323 47.1546 78.6033 44.411 77.8371 41.8094ZM75.8065 9.67722C83.8097 9.67722 90.3226 16.1901 90.3226 24.1933C90.3226 31.8869 84.3 38.1852 76.7242 38.6627C73.7839 31.7562 68.242 26.2159 61.3371 23.2756C61.8145 15.6998 68.1129 9.67722 75.8065 9.67722ZM50 75.8062C35.771 75.8062 24.1936 64.2287 24.1936 49.9997C24.1936 35.7707 35.771 24.1933 50 24.1933C64.2291 24.1933 75.8065 35.7707 75.8065 49.9997C75.8065 64.2287 64.2291 75.8062 50 75.8062Z" fill="#943EB2"/>
<path d="M50 27.4194V30.6452C60.6726 30.6452 69.3548 39.3275 69.3548 50H72.5806C72.5806 37.5485 62.4516 27.4194 50 27.4194Z" fill="#943EB2"/>
<path d="M85.4839 70.9678C77.4807 70.9678 70.9678 77.4807 70.9678 85.4839C70.9678 93.4871 77.4807 100 85.4839 100C93.4871 100 100 93.4871 100 85.4839C100 77.4807 93.4871 70.9678 85.4839 70.9678ZM85.4839 96.7742C79.2581 96.7742 74.1936 91.7097 74.1936 85.4839C74.1936 79.2581 79.2581 74.1936 85.4839 74.1936C91.7097 74.1936 96.7742 79.2581 96.7742 85.4839C96.7742 91.7097 91.7097 96.7742 85.4839 96.7742Z" fill="#943EB2"/>
<path d="M85.484 77.4192V80.645C88.1518 80.645 90.3227 82.816 90.3227 85.4837H93.5485C93.5485 81.0369 89.9308 77.4192 85.484 77.4192Z" fill="#943EB2"/>
<path d="M25.8065 14.5159H29.0323C29.0323 10.0692 25.4145 6.45142 20.9678 6.45142V9.67722C23.6355 9.67722 25.8065 11.8482 25.8065 14.5159Z" fill="#943EB2"/>
<path d="M20.9679 29.0322C28.9711 29.0322 35.484 22.5193 35.484 14.5161C35.484 6.51289 28.9711 0 20.9679 0C12.9647 0 6.45178 6.51289 6.45178 14.5161C6.45178 22.5193 12.9647 29.0322 20.9679 29.0322ZM20.9679 3.2258C27.1937 3.2258 32.2582 8.29031 32.2582 14.5161C32.2582 20.7419 27.1937 25.8064 20.9679 25.8064C14.7421 25.8064 9.67759 20.7419 9.67759 14.5161C9.67759 8.29031 14.7421 3.2258 20.9679 3.2258Z" fill="#943EB2"/>
<path d="M83.871 24.1939H87.0968C87.0968 17.9681 82.0323 12.9036 75.8065 12.9036V16.1294C80.2533 16.1294 83.871 19.7471 83.871 24.1939Z" fill="#943EB2"/>
<path d="M22.5805 83.8706C18.1337 83.8706 14.516 87.4883 14.516 91.9351C14.516 96.3819 18.1337 99.9996 22.5805 99.9996C27.0273 99.9996 30.645 96.3819 30.645 91.9351C30.645 87.4883 27.0273 83.8706 22.5805 83.8706ZM22.5805 96.7738C19.9128 96.7738 17.7418 94.6028 17.7418 91.9351C17.7418 89.2674 19.9128 87.0964 22.5805 87.0964C25.2483 87.0964 27.4192 89.2674 27.4192 91.9351C27.4192 94.6028 25.2483 96.7738 22.5805 96.7738Z" fill="#943EB2"/>
<path d="M8.06452 54.8386C3.61774 54.8386 0 58.4564 0 62.9031C0 67.3499 3.61774 70.9676 8.06452 70.9676C12.5113 70.9676 16.129 67.3499 16.129 62.9031C16.129 58.4564 12.5113 54.8386 8.06452 54.8386ZM8.06452 67.7418C5.39678 67.7418 3.22581 65.5709 3.22581 62.9031C3.22581 60.2354 5.39678 58.0644 8.06452 58.0644C10.7323 58.0644 12.9032 60.2354 12.9032 62.9031C12.9032 65.5709 10.7323 67.7418 8.06452 67.7418Z" fill="#943EB2"/>
<path d="M12.9033 51.6129C17.35 51.6129 20.9678 47.9952 20.9678 43.5484C20.9678 39.1016 17.35 35.4839 12.9033 35.4839C8.45649 35.4839 4.83875 39.1016 4.83875 43.5484C4.83875 47.9952 8.45649 51.6129 12.9033 51.6129ZM12.9033 38.7097C15.571 38.7097 17.742 40.8807 17.742 43.5484C17.742 46.2161 15.571 48.3871 12.9033 48.3871C10.2355 48.3871 8.06455 46.2161 8.06455 43.5484C8.06455 40.8807 10.2355 38.7097 12.9033 38.7097Z" fill="#943EB2"/>
<path d="M88.7097 48.387C85.1516 48.387 82.2581 51.2805 82.2581 54.8386C82.2581 58.3966 85.1516 61.2902 88.7097 61.2902C92.2677 61.2902 95.1613 58.3966 95.1613 54.8386C95.1613 51.2805 92.2677 48.387 88.7097 48.387ZM88.7097 58.0644C86.9306 58.0644 85.4839 56.6176 85.4839 54.8386C85.4839 53.0595 86.9306 51.6128 88.7097 51.6128C90.4887 51.6128 91.9355 53.0595 91.9355 54.8386C91.9355 56.6176 90.4887 58.0644 88.7097 58.0644Z" fill="#943EB2"/>
<path d="M54.8387 80.645C51.2806 80.645 48.3871 83.5386 48.3871 87.0966C48.3871 90.6547 51.2806 93.5482 54.8387 93.5482C58.3968 93.5482 61.2903 90.6547 61.2903 87.0966C61.2903 83.5386 58.3968 80.645 54.8387 80.645ZM54.8387 90.3224C53.0597 90.3224 51.6129 88.8757 51.6129 87.0966C51.6129 85.3176 53.0597 83.8708 54.8387 83.8708C56.6177 83.8708 58.0645 85.3176 58.0645 87.0966C58.0645 88.8757 56.6177 90.3224 54.8387 90.3224Z" fill="#943EB2"/>
<path d="M50 16.1288C52.6677 16.1288 54.8387 13.9579 54.8387 11.2901C54.8387 8.62238 52.6677 6.45142 50 6.45142C47.3322 6.45142 45.1613 8.62238 45.1613 11.2901C45.1613 13.9579 47.3322 16.1288 50 16.1288ZM50 9.67722C50.8887 9.67722 51.6129 10.4014 51.6129 11.2901C51.6129 12.1788 50.8887 12.903 50 12.903C49.1113 12.903 48.3871 12.1788 48.3871 11.2901C48.3871 10.4014 49.1113 9.67722 50 9.67722Z" fill="#943EB2"/>
<path d="M16.129 77.4193C16.129 80.087 18.3 82.258 20.9677 82.258C23.6355 82.258 25.8064 80.087 25.8064 77.4193C25.8064 74.7515 23.6355 72.5806 20.9677 72.5806C18.3 72.5806 16.129 74.7515 16.129 77.4193ZM20.9677 75.8064C21.8564 75.8064 22.5806 76.5306 22.5806 77.4193C22.5806 78.308 21.8564 79.0322 20.9677 79.0322C20.079 79.0322 19.3548 78.308 19.3548 77.4193C19.3548 76.5306 20.079 75.8064 20.9677 75.8064Z" fill="#943EB2"/>
</svg>
