<svg width="84" height="76" viewBox="0 0 84 76" fill="none" xmlns="http://www.w3.org/2000/svg">
    <g filter="url(#filter0_d)">
        <circle cx="38" cy="38" r="21" fill="#FFA41D" fill-opacity="0.55"/>
    </g>
    <path d="M72.2536 33.1591C76.933 32.6231 80.5806 28.643 80.5806 23.8226C80.5806 18.638 76.362 14.4194 71.1774 14.4194C66.3569 14.4194 62.3768 18.067 61.8408 22.7464C60.4619 22.3403 59.0079 22.1129 57.4999 22.1129C49.0156 22.1129 42.1128 29.0157 42.1128 37.4999C42.1128 45.9841 49.0156 52.8869 57.4999 52.8869C65.9842 52.8869 72.8871 45.9841 72.8871 37.4999C72.8871 35.992 72.6597 34.5379 72.2536 33.1591ZM71.1774 16.1291C75.4191 16.1291 78.8709 19.5809 78.8709 23.8226C78.8709 27.9001 75.679 31.2383 71.6638 31.4913C70.1054 27.8309 67.1682 24.8946 63.5086 23.3362C63.7616 19.321 67.0998 16.1291 71.1774 16.1291ZM57.4999 51.1772C49.9585 51.1772 43.8225 45.0413 43.8225 37.4999C43.8225 29.9586 49.9585 23.8226 57.4999 23.8226C65.0413 23.8226 71.1774 29.9586 71.1774 37.4999C71.1774 45.0413 65.0413 51.1772 57.4999 51.1772Z" fill="#943EB2"/>
    <path d="M57.5 25.5325V27.2421C63.1565 27.2421 67.7581 31.8437 67.7581 37.5002H69.4678C69.4678 30.9009 64.0994 25.5325 57.5 25.5325Z" fill="#943EB2"/>
    <path d="M76.3064 48.6132C72.0646 48.6132 68.6128 52.065 68.6128 56.3067C68.6128 60.5484 72.0646 64.0002 76.3064 64.0002C80.5481 64.0002 83.9999 60.5484 83.9999 56.3067C83.9999 52.065 80.5481 48.6132 76.3064 48.6132ZM76.3064 62.2905C73.0067 62.2905 70.3225 59.6063 70.3225 56.3067C70.3225 53.007 73.0067 50.3228 76.3064 50.3228C79.606 50.3228 82.2902 53.007 82.2902 56.3067C82.2902 59.6063 79.606 62.2905 76.3064 62.2905Z" fill="#943EB2"/>
    <path d="M76.3065 52.0326V53.7422C77.7204 53.7422 78.871 54.8928 78.871 56.3067H80.5807C80.5807 53.95 78.6633 52.0326 76.3065 52.0326Z" fill="#943EB2"/>
    <path d="M44.6773 18.6937H46.387C46.387 16.3369 44.4696 14.4194 42.1128 14.4194V16.1292C43.5267 16.1292 44.6773 17.2798 44.6773 18.6937Z" fill="#943EB2"/>
    <path d="M42.1128 26.387C46.3546 26.387 49.8064 22.9352 49.8064 18.6935C49.8064 14.4518 46.3546 11 42.1128 11C37.8711 11 34.4193 14.4518 34.4193 18.6935C34.4193 22.9352 37.8711 26.387 42.1128 26.387ZM42.1128 12.7097C45.4125 12.7097 48.0967 15.3939 48.0967 18.6935C48.0967 21.9932 45.4125 24.6774 42.1128 24.6774C38.8132 24.6774 36.129 21.9932 36.129 18.6935C36.129 15.3939 38.8132 12.7097 42.1128 12.7097Z" fill="#943EB2"/>
    <path d="M75.4517 23.8229H77.1614C77.1614 20.5232 74.4772 17.839 71.1775 17.839V19.5487C73.5343 19.5487 75.4517 21.4661 75.4517 23.8229Z" fill="#943EB2"/>
    <path d="M42.9677 55.452C40.6109 55.452 38.6935 57.3694 38.6935 59.7262C38.6935 62.0829 40.6109 64.0003 42.9677 64.0003C45.3245 64.0003 47.2419 62.0829 47.2419 59.7262C47.2419 57.3694 45.3245 55.452 42.9677 55.452ZM42.9677 62.2906C41.5538 62.2906 40.4032 61.14 40.4032 59.7262C40.4032 58.3123 41.5538 57.1617 42.9677 57.1617C44.3816 57.1617 45.5322 58.3123 45.5322 59.7262C45.5322 61.14 44.3816 62.2906 42.9677 62.2906Z" fill="#943EB2"/>
    <path d="M35.2742 40.0649C32.9174 40.0649 31 41.9824 31 44.3392C31 46.696 32.9174 48.6134 35.2742 48.6134C37.631 48.6134 39.5484 46.696 39.5484 44.3392C39.5484 41.9824 37.631 40.0649 35.2742 40.0649ZM35.2742 46.9037C33.8603 46.9037 32.7097 45.7531 32.7097 44.3392C32.7097 42.9252 33.8603 41.7746 35.2742 41.7746C36.6881 41.7746 37.8387 42.9252 37.8387 44.3392C37.8387 45.7531 36.6881 46.9037 35.2742 46.9037Z" fill="#943EB2"/>
    <path d="M37.8386 38.3548C40.1954 38.3548 42.1128 36.4374 42.1128 34.0806C42.1128 31.7239 40.1954 29.8065 37.8386 29.8065C35.4819 29.8065 33.5645 31.7239 33.5645 34.0806C33.5645 36.4374 35.4819 38.3548 37.8386 38.3548ZM37.8386 31.5162C39.2525 31.5162 40.4031 32.6668 40.4031 34.0806C40.4031 35.4945 39.2525 36.6451 37.8386 36.6451C36.4247 36.6451 35.2741 35.4945 35.2741 34.0806C35.2741 32.6668 36.4247 31.5162 37.8386 31.5162Z" fill="#943EB2"/>
    <path d="M78.0162 36.6455C76.1304 36.6455 74.5968 38.1791 74.5968 40.0648C74.5968 41.9506 76.1304 43.4841 78.0162 43.4841C79.9019 43.4841 81.4355 41.9506 81.4355 40.0648C81.4355 38.1791 79.9019 36.6455 78.0162 36.6455ZM78.0162 41.7745C77.0733 41.7745 76.3065 41.0077 76.3065 40.0648C76.3065 39.1219 77.0733 38.3552 78.0162 38.3552C78.959 38.3552 79.7258 39.1219 79.7258 40.0648C79.7258 41.0077 78.959 41.7745 78.0162 41.7745Z" fill="#943EB2"/>
    <path d="M60.0645 53.7418C58.1787 53.7418 56.6451 55.2754 56.6451 57.1611C56.6451 59.0469 58.1787 60.5804 60.0645 60.5804C61.9503 60.5804 63.4839 59.0469 63.4839 57.1611C63.4839 55.2754 61.9503 53.7418 60.0645 53.7418ZM60.0645 58.8708C59.1216 58.8708 58.3548 58.104 58.3548 57.1611C58.3548 56.2182 59.1216 55.4515 60.0645 55.4515C61.0074 55.4515 61.7742 56.2182 61.7742 57.1611C61.7742 58.104 61.0074 58.8708 60.0645 58.8708Z" fill="#943EB2"/>
    <path d="M57.5 19.5484C58.9139 19.5484 60.0645 18.3978 60.0645 16.9839C60.0645 15.57 58.9139 14.4194 57.5 14.4194C56.086 14.4194 54.9354 15.57 54.9354 16.9839C54.9354 18.3978 56.086 19.5484 57.5 19.5484ZM57.5 16.1291C57.971 16.1291 58.3548 16.5129 58.3548 16.9839C58.3548 17.4549 57.971 17.8387 57.5 17.8387C57.0289 17.8387 56.6451 17.4549 56.6451 16.9839C56.6451 16.5129 57.0289 16.1291 57.5 16.1291Z" fill="#943EB2"/>
    <path d="M39.5483 52.0322C39.5483 53.4461 40.6989 54.5967 42.1128 54.5967C43.5267 54.5967 44.6773 53.4461 44.6773 52.0322C44.6773 50.6184 43.5267 49.4678 42.1128 49.4678C40.6989 49.4678 39.5483 50.6184 39.5483 52.0322ZM42.1128 51.1774C42.5839 51.1774 42.9677 51.5612 42.9677 52.0322C42.9677 52.5033 42.5839 52.8871 42.1128 52.8871C41.6418 52.8871 41.258 52.5033 41.258 52.0322C41.258 51.5612 41.6418 51.1774 42.1128 51.1774Z" fill="#943EB2"/>
    <defs>
        <filter id="filter0_d" x="0" y="0" width="76" height="76" filterUnits="userSpaceOnUse" color-interpolation-filters="sRGB">
            <feFlood flood-opacity="0" result="BackgroundImageFix"/>
            <feColorMatrix in="SourceAlpha" type="matrix" values="0 0 0 0 0 0 0 0 0 0 0 0 0 0 0 0 0 0 127 0"/>
            <feMorphology radius="7" operator="dilate" in="SourceAlpha" result="effect1_dropShadow"/>
            <feOffset/>
            <feGaussianBlur stdDeviation="5"/>
            <feColorMatrix type="matrix" values="0 0 0 0 1 0 0 0 0 0.645 0 0 0 0 0.1125 0 0 0 0.84 0"/>
            <feBlend mode="normal" in2="BackgroundImageFix" result="effect1_dropShadow"/>
            <feBlend mode="normal" in="SourceGraphic" in2="effect1_dropShadow" result="shape"/>
        </filter>
    </defs>
</svg>
