<svg width="84" height="76" viewBox="0 0 84 76" fill="none" xmlns="http://www.w3.org/2000/svg">
    <g filter="url(#filter0_d)">
        <circle cx="38" cy="38" r="21" fill="#FFA41D" fill-opacity="0.55"/>
    </g>
    <path d="M79.6577 62.017C82.1001 61.6818 83.9882 59.5826 83.9882 57.0494C83.9882 54.2839 81.7382 52.034 78.9727 52.034C76.2466 52.034 74.0232 54.2205 73.9602 56.9314C73.76 56.9073 73.5581 56.8945 73.3551 56.8945C72.1854 56.8945 71.0773 57.2923 70.1844 58.0237C69.9993 57.966 69.8026 57.9348 69.5988 57.9348H68.1089V54.0546C68.1089 50.791 67.2135 47.7329 65.6569 45.1114C65.8087 44.5177 65.8866 43.905 65.8866 43.2872V38.7382H67.5383C69.0441 38.7382 70.2692 37.513 70.2692 36.0072V30.9626C70.2692 29.9781 70.0887 29.0179 69.7327 28.1087C69.5767 27.7102 69.127 27.5135 68.7287 27.6696C68.3302 27.8256 68.1336 28.2751 68.2897 28.6736C68.5749 29.4021 68.7195 30.1722 68.7195 30.9626V36.0072C68.7195 36.6585 68.1896 37.1884 67.5383 37.1884H65.8866V34.7976C65.8866 30.7502 62.5938 27.4573 58.5463 27.4573H55.684L56.6274 26.7082C58.2734 25.4014 60.3371 24.6818 62.4387 24.6818C63.8841 24.6818 65.2949 25.1846 66.4114 26.0977C66.7427 26.3686 67.2308 26.3197 67.5017 25.9883C67.7726 25.657 67.7237 25.1689 67.3924 24.898C65.9998 23.7592 64.2406 23.132 62.4386 23.132C59.9886 23.132 57.5827 23.971 55.6637 25.4945L54.1988 26.6576V26.3622C54.1988 25.8254 53.9624 25.344 53.5897 25.0126C54.1377 24.3853 54.9359 24.0127 55.787 24.0127C56.1648 24.0127 56.5141 23.8239 56.7211 23.5078C56.9285 23.1913 56.962 22.7954 56.8108 22.4487C55.8839 20.3214 53.4802 19 50.5377 19C47.5952 19 45.1915 20.3214 44.2646 22.4485C44.1133 22.7953 44.1469 23.1913 44.3542 23.5077C44.5612 23.8239 44.9104 24.0126 45.2883 24.0126C46.1226 24.0126 46.9075 24.3725 47.4548 24.9789C47.0603 25.3108 46.8087 25.8074 46.8087 26.3621V26.4396L45.6181 25.4944C43.6994 23.9709 41.2934 23.1319 38.8433 23.1319C34.5256 23.1319 31.0127 26.6447 31.0127 30.9626V36.0072C31.0127 37.513 32.2379 38.7382 33.7437 38.7382H35.1888V43.2872C35.1888 43.9055 35.2667 44.5169 35.4183 45.1103C33.8318 47.7947 32.9664 50.882 32.9664 54.0546V62.1368C32.9664 63.4186 34.0093 64.4615 35.2911 64.4615H41.538C44.2662 64.4615 46.4858 62.2419 46.4858 59.5136V51.1539C46.4858 50.9755 46.4986 50.8001 46.5211 50.6276H54.5543C54.5768 50.8001 54.5896 50.9755 54.5896 51.1539V53.078L51.8703 52.1061C51.3503 51.9202 50.7679 51.9958 50.3127 52.3079C49.8572 52.6202 49.577 53.1361 49.563 53.6881C49.5492 54.2225 49.7898 54.7419 50.2065 55.0773L55.7128 59.5092L50.3923 61.1341C50.3923 61.1341 50.3923 61.1341 50.3922 61.1341C49.7412 61.3329 49.2645 61.8732 49.1481 62.5437C49.0317 63.2144 49.2985 63.8837 49.8446 64.2903C50.1523 64.5194 50.5329 64.6455 50.9165 64.6455H69.5989C70.2058 64.6455 70.749 64.3692 71.1105 63.9361L74.288 65.1963C74.0751 65.7522 73.9573 66.3548 73.9573 66.9847C73.9573 67.6716 74.0939 68.3375 74.3633 68.9642C74.5324 69.3572 74.9879 69.5389 75.3814 69.3701C75.7744 69.2009 75.9562 68.7453 75.7871 68.3521C75.6013 67.9198 75.507 67.4598 75.507 66.9846C75.507 65.0736 77.0618 63.5188 78.9728 63.5188C80.8838 63.5188 82.4385 65.0736 82.4385 66.9846C82.4385 68.8956 80.8838 70.4503 78.9728 70.4503C78.622 70.4503 78.2764 70.3982 77.9453 70.2956C77.5367 70.1694 77.1024 70.3976 76.9757 70.8064C76.8491 71.2151 77.0777 71.6492 77.4864 71.776C77.9663 71.9247 78.4663 72.0001 78.9728 72.0001C81.7384 72.0001 83.9883 69.7502 83.9883 66.9847C83.9883 64.4513 82.1001 62.3521 79.6577 62.017ZM78.9727 53.5837C80.8837 53.5837 82.4384 55.1384 82.4384 57.0494C82.4384 58.9604 80.8837 60.5151 78.9727 60.5151C77.0617 60.5151 75.5069 58.9604 75.5069 57.0494C75.5069 55.1384 77.0617 53.5837 78.9727 53.5837ZM48.3584 26.3622C48.3584 26.2198 48.4742 26.104 48.6167 26.104H52.3909C52.5334 26.104 52.6492 26.2198 52.6492 26.3622V27.7156C52.6492 27.858 52.5334 27.9739 52.3909 27.9739H48.6167C48.4742 27.9739 48.3584 27.858 48.3584 27.7156V26.3622ZM45.9874 22.5183C46.9609 21.0788 48.9143 20.5497 50.5377 20.5497C52.1611 20.5497 54.1143 21.0786 55.0879 22.5181C53.8231 22.7187 52.6944 23.4573 52.0048 24.5542H49.0699C48.3804 23.4583 47.2509 22.7192 45.9874 22.5183ZM33.7437 37.1884C33.0923 37.1884 32.5624 36.6585 32.5624 36.0072V30.9626C32.5624 27.4993 35.38 24.6817 38.8433 24.6817C40.9449 24.6817 43.0087 25.4013 44.6545 26.7081L45.598 27.4572H42.5292C38.4818 27.4572 35.1889 30.7501 35.1889 34.7975V37.1883H33.7437V37.1884ZM44.9361 51.1538V59.5135C44.9361 61.3873 43.4117 62.9116 41.538 62.9116H35.2911C34.8638 62.9116 34.5162 62.564 34.5162 62.1367V54.0545C34.5151 51.0141 35.3882 48.0599 36.9776 45.5287C37.7531 44.2938 38.6987 43.1588 39.7994 42.164C40.1169 41.8771 40.1417 41.3871 39.8548 41.0696C39.5678 40.752 39.0778 40.7273 38.7604 41.0143C38.0213 41.6821 37.3468 42.4083 36.7386 43.1813V34.7976C36.7386 31.6047 39.3362 29.0071 42.5291 29.0071H47.3538C47.68 29.3261 48.1255 29.5236 48.6167 29.5236H52.3909C52.8821 29.5236 53.3277 29.3261 53.6538 29.0071H58.5463C61.7392 29.0071 64.3369 31.6047 64.3369 34.7976V43.1887C62.7097 41.1268 60.6309 39.4374 58.2515 38.2698C58.29 38.2726 58.3283 38.2757 58.3675 38.2757C59.2433 38.2757 59.9532 37.5658 59.9532 36.6901C59.9532 35.8144 59.2433 35.1044 58.3675 35.1044C57.4918 35.1044 56.7819 35.8144 56.7819 36.6901C56.7819 37.1321 56.963 37.5314 57.2547 37.8189C55.1843 36.9591 52.9157 36.4834 50.5378 36.4834C48.2278 36.4834 45.9452 36.9386 43.8289 37.8117C44.116 37.5247 44.2938 37.1282 44.2938 36.6901C44.2938 35.8144 43.5838 35.1044 42.7081 35.1044C41.8324 35.1044 41.1224 35.8144 41.1224 36.6901C41.1224 37.5658 41.8324 38.2757 42.7081 38.2757C42.7425 38.2757 42.776 38.2727 42.8098 38.2706C42.4657 38.4391 42.1268 38.619 41.794 38.8103C41.4228 39.0234 41.295 39.4972 41.5084 39.8681C41.7216 40.2391 42.1953 40.3673 42.5662 40.1537C44.98 38.7663 47.7365 38.033 50.5378 38.033C59.372 38.033 66.5592 45.2202 66.5592 54.0545V57.9276H59.5376C57.6638 57.9276 56.1395 56.4032 56.1395 54.5295V51.1537C56.1395 48.6852 54.5337 46.586 52.3125 45.8419L54.4259 43.3892C54.968 42.7601 55.0897 41.9003 54.7437 41.1453C54.3976 40.3903 53.6667 39.9213 52.8363 39.9213H48.2392C47.4087 39.9213 46.6779 40.3903 46.3319 41.1453C45.9859 41.9002 46.1077 42.7601 46.6498 43.3892L48.7631 45.8419C46.5418 46.5861 44.9361 48.6853 44.9361 51.1538ZM50.5377 45.5001C50.514 45.5001 50.5028 45.4871 50.4986 45.4822L47.8236 42.3778C47.6163 42.1371 47.6965 41.8873 47.7406 41.7911C47.7847 41.6949 47.9216 41.4712 48.2391 41.4712H52.8362C53.1539 41.4712 53.2907 41.695 53.3348 41.7911C53.3789 41.8874 53.4591 42.1371 53.2518 42.3778L50.5768 45.4822C50.5726 45.4871 50.5614 45.5001 50.5377 45.5001ZM47.0597 49.0778C47.7681 47.8953 49.0618 47.1019 50.5377 47.1019C52.0135 47.1019 53.3072 47.8953 54.0157 49.0778H47.0597ZM51.1122 53.7273C51.1299 53.5911 51.2151 53.5326 51.3486 53.5652L54.5947 54.7254C54.632 55.6768 54.9382 56.5602 55.4406 57.3007L51.1784 53.87C51.1354 53.8355 51.1108 53.7822 51.1122 53.7273ZM69.5988 63.0957H50.9164C50.6402 63.0813 50.5645 62.7121 50.8448 62.6161H50.8447L59.8894 59.8538C60.6918 59.6088 61.5239 59.4845 62.3628 59.4845H69.5988C69.83 59.4845 70.0181 59.6726 70.0181 59.9039V62.6763C70.0181 62.9076 69.83 63.0957 69.5988 63.0957ZM75.07 63.8392L71.5678 62.4503V59.9039C71.5678 59.6033 71.4982 59.3193 71.3772 59.0643C71.9535 58.6618 72.6373 58.4443 73.3551 58.4443C73.6368 58.4443 73.9151 58.4799 74.1854 58.5464C74.7576 60.3721 76.3478 61.7508 78.2878 62.0171C76.9929 62.1947 75.8544 62.8679 75.07 63.8392Z" fill="#943EB2"/>
    <defs>
        <filter id="filter0_d" x="0" y="0" width="76" height="76" filterUnits="userSpaceOnUse" color-interpolation-filters="sRGB">
            <feFlood flood-opacity="0" result="BackgroundImageFix"/>
            <feColorMatrix in="SourceAlpha" type="matrix" values="0 0 0 0 0 0 0 0 0 0 0 0 0 0 0 0 0 0 127 0"/>
            <feMorphology radius="7" operator="dilate" in="SourceAlpha" result="effect1_dropShadow"/>
            <feOffset/>
            <feGaussianBlur stdDeviation="5"/>
            <feColorMatrix type="matrix" values="0 0 0 0 1 0 0 0 0 0.645 0 0 0 0 0.1125 0 0 0 0.84 0"/>
            <feBlend mode="normal" in2="BackgroundImageFix" result="effect1_dropShadow"/>
            <feBlend mode="normal" in="SourceGraphic" in2="effect1_dropShadow" result="shape"/>
        </filter>
    </defs>
</svg>
