<svg width="100" height="100" viewBox="0 0 100 100" fill="none" xmlns="http://www.w3.org/2000/svg">
<g clip-path="url(#clip0)">
<path d="M91.8056 81.1641C96.414 80.5316 99.9763 76.5709 99.9763 71.7914C99.9763 66.5734 95.7312 62.3283 90.5132 62.3283C85.3697 62.3283 81.1746 66.4537 81.0556 71.5687C80.6779 71.5232 80.297 71.499 79.914 71.499C77.707 71.499 75.6162 72.2496 73.9314 73.6297C73.5822 73.5207 73.2111 73.4619 72.8265 73.4619H70.0154V66.1408C70.0154 59.983 68.3259 54.2131 65.389 49.2668C65.6755 48.1467 65.8224 46.9906 65.8224 45.825V37.2418H68.9388C71.78 37.2418 74.0916 34.9303 74.0916 32.0891V22.5709C74.0916 20.7135 73.7509 18.9018 73.0793 17.1861C72.7849 16.4344 71.9365 16.0633 71.1849 16.3578C70.433 16.6521 70.0621 17.5002 70.3566 18.2521C70.8947 19.6266 71.1675 21.0797 71.1675 22.5709V32.0891C71.1675 33.318 70.1677 34.3178 68.9388 34.3178H65.8224V29.8068C65.8224 22.1701 59.6095 15.9572 51.9728 15.9572H46.5722L48.3523 14.5437C51.458 12.0781 55.3517 10.7203 59.3169 10.7203C62.0441 10.7203 64.706 11.6691 66.8127 13.3918C67.4377 13.9029 68.3587 13.8107 68.8699 13.1855C69.381 12.5604 69.2886 11.6395 68.6636 11.1283C66.0361 8.97969 62.7168 7.79629 59.3168 7.79629C54.6941 7.79629 50.1546 9.3793 46.5339 12.2537L43.7701 14.4482V13.891C43.7701 12.8781 43.324 11.9697 42.6207 11.3445C43.6546 10.1609 45.1607 9.45801 46.7666 9.45801C47.4795 9.45801 48.1384 9.10176 48.5291 8.50527C48.9203 7.9082 48.9836 7.16113 48.6982 6.50703C46.9494 2.49316 42.4142 0 36.8623 0C31.3103 0 26.7752 2.49316 25.0261 6.50664C24.7408 7.16094 24.8041 7.9082 25.1953 8.50508C25.5859 9.10176 26.2447 9.45781 26.9578 9.45781C28.5318 9.45781 30.0128 10.1367 31.0455 11.2809C30.3011 11.9072 29.8263 12.8441 29.8263 13.8908V14.0369L27.58 12.2535C23.9597 9.3791 19.4201 7.79609 14.7974 7.79609C6.65074 7.79609 0.0226135 14.424 0.0226135 22.5709V32.0891C0.0226135 34.9303 2.33433 37.2418 5.17554 37.2418H7.90211V45.825C7.90211 46.9916 8.04898 48.1451 8.33511 49.2646C5.34175 54.3297 3.70894 60.1547 3.70894 66.1408V81.3902C3.70894 83.8086 5.67652 85.7764 8.09507 85.7764H19.8816C25.0293 85.7764 29.2171 81.5885 29.2171 76.4408V60.6678C29.2171 60.3311 29.2414 60.0002 29.2837 59.6748H44.4408C44.4832 60.0002 44.5074 60.3311 44.5074 60.6678V64.298L39.3765 62.4643C38.3955 62.1137 37.2966 62.2562 36.4377 62.8451C35.5783 63.4344 35.0496 64.4078 35.0232 65.4492C34.9972 66.4576 35.4511 67.4375 36.2373 68.0703L46.6265 76.4324L36.5878 79.4982C36.5878 79.4982 36.5878 79.4982 36.5877 79.4982C35.3593 79.8734 34.4599 80.8928 34.2404 82.158C34.0207 83.4234 34.5242 84.6861 35.5545 85.4533C36.1351 85.8857 36.8533 86.1236 37.5769 86.1236H72.8267C73.9718 86.1236 74.9968 85.6023 75.6789 84.7852L81.6742 87.1629C81.2724 88.2117 81.0501 89.3486 81.0501 90.5371C81.0501 91.8332 81.308 93.0897 81.8162 94.2721C82.1353 95.0137 82.9947 95.3564 83.7371 95.0379C84.4787 94.7188 84.8216 93.859 84.5027 93.1172C84.1521 92.3016 83.9742 91.4336 83.9742 90.5369C83.9742 86.9313 86.9078 83.9977 90.5134 83.9977C94.1191 83.9977 97.0525 86.9313 97.0525 90.5369C97.0525 94.1426 94.1191 97.076 90.5134 97.076C89.8515 97.076 89.1994 96.9777 88.5748 96.7842C87.8037 96.5461 86.9843 96.9766 86.7453 97.7478C86.5064 98.5191 86.9376 99.3381 87.7089 99.5773C88.6144 99.858 89.5578 100 90.5134 100C95.7314 100 99.9765 95.7551 99.9765 90.5371C99.9765 85.7572 96.414 81.7965 91.8056 81.1641ZM90.5132 65.2523C94.1189 65.2523 97.0523 68.1857 97.0523 71.7914C97.0523 75.3971 94.1189 78.3305 90.5132 78.3305C86.9076 78.3305 83.974 75.3971 83.974 71.7914C83.974 68.1857 86.9076 65.2523 90.5132 65.2523ZM32.7504 13.891C32.7504 13.6223 32.9689 13.4037 33.2377 13.4037H40.3589C40.6277 13.4037 40.8462 13.6223 40.8462 13.891V16.4445C40.8462 16.7133 40.6277 16.9318 40.3589 16.9318H33.2377C32.9689 16.9318 32.7504 16.7133 32.7504 16.4445V13.891ZM28.2767 6.63828C30.1136 3.92227 33.7992 2.92402 36.8623 2.92402C39.9254 2.92402 43.6105 3.92188 45.4476 6.63789C43.0611 7.01641 40.9314 8.40996 39.6304 10.4797H34.0927C32.792 8.41191 30.6607 7.01738 28.2767 6.63828ZM5.17554 34.3178C3.94644 34.3178 2.94664 33.318 2.94664 32.0891V22.5709C2.94664 16.0363 8.26285 10.7201 14.7974 10.7201C18.7627 10.7201 22.6566 12.0779 25.7619 14.5436L27.5421 15.957H21.7519C14.1152 15.957 7.9023 22.1699 7.9023 29.8066V34.3176H5.17554V34.3178ZM26.2931 60.6676V76.4406C26.2931 79.976 23.417 82.8521 19.8816 82.8521H8.09507C7.28882 82.8521 6.63297 82.1963 6.63297 81.39V66.1406C6.63101 60.4039 8.27828 54.8301 11.2771 50.0541C12.7404 47.7242 14.5246 45.5826 16.6013 43.7057C17.2003 43.1643 17.2472 42.2398 16.7058 41.6408C16.1644 41.0416 15.2398 40.9949 14.641 41.5363C13.2464 42.7965 11.9738 44.1666 10.8261 45.625V29.8068C10.8261 23.7824 15.7273 18.8812 21.7517 18.8812H30.8548C31.4703 19.4832 32.3109 19.8559 33.2377 19.8559H40.3589C41.2857 19.8559 42.1263 19.4832 42.7418 18.8812H51.9728C57.9972 18.8812 62.8984 23.7824 62.8984 29.8068V45.6391C59.8283 41.7486 55.906 38.5611 51.4166 36.3582C51.4892 36.3635 51.5615 36.3693 51.6355 36.3693C53.2878 36.3693 54.6273 35.0299 54.6273 33.3775C54.6273 31.7252 53.2878 30.3857 51.6355 30.3857C49.9832 30.3857 48.6437 31.7252 48.6437 33.3775C48.6437 34.2115 48.9855 34.9648 49.5359 35.5074C45.6295 33.8852 41.349 32.9875 36.8625 32.9875C32.5039 32.9875 28.1972 33.8465 24.2041 35.4937C24.7459 34.9523 25.0812 34.2041 25.0812 33.3775C25.0812 31.7252 23.7418 30.3857 22.0894 30.3857C20.4371 30.3857 19.0976 31.7252 19.0976 33.3775C19.0976 35.0299 20.4371 36.3693 22.0894 36.3693C22.1543 36.3693 22.2175 36.3637 22.2812 36.3596C21.632 36.6775 20.9925 37.017 20.3646 37.3779C19.6644 37.7801 19.4232 38.674 19.8257 39.3738C20.2281 40.0738 21.1218 40.3156 21.8216 39.9127C26.3759 37.2949 31.5769 35.9113 36.8625 35.9113C53.5308 35.9113 67.0916 49.4721 67.0916 66.1406V73.4482H53.8431C50.3078 73.4482 47.4316 70.5721 47.4316 67.0367V60.6674C47.4316 56.0098 44.4019 52.049 40.2109 50.6451L44.1984 46.0174C45.2212 44.8305 45.4509 43.2082 44.798 41.7836C44.1451 40.359 42.766 39.4742 41.1992 39.4742H32.5255C30.9586 39.4742 29.5796 40.359 28.9267 41.7836C28.274 43.208 28.5037 44.8305 29.5265 46.0174L33.514 50.6451C29.3228 52.0492 26.2931 56.01 26.2931 60.6676ZM36.8623 50.0002C36.8175 50.0002 36.7964 49.9756 36.7884 49.9664L31.7414 44.109C31.3502 43.6549 31.5015 43.1836 31.5847 43.0021C31.6679 42.8205 31.9261 42.3984 32.5253 42.3984H41.199C41.7984 42.3984 42.0566 42.8207 42.1398 43.0021C42.223 43.1838 42.3744 43.6549 41.9832 44.109L36.9361 49.9664C36.9281 49.9756 36.907 50.0002 36.8623 50.0002ZM30.3 56.7506C31.6367 54.5195 34.0775 53.0225 36.8623 53.0225C39.6468 53.0225 42.0877 54.5195 43.4246 56.7506H30.3ZM37.9462 65.5232C37.9796 65.2662 38.1404 65.1559 38.3923 65.2174L44.5169 67.4064C44.5873 69.2016 45.165 70.8684 46.113 72.2654L38.0711 65.7924C37.99 65.7273 37.9435 65.6268 37.9462 65.5232ZM72.8265 83.1994H37.5767C37.0556 83.1723 36.9128 82.4756 37.4418 82.2945H37.4416L54.507 77.0826C56.0209 76.6203 57.591 76.3859 59.1738 76.3859H72.8265C73.2628 76.3859 73.6177 76.7408 73.6177 77.1771V82.4082C73.6177 82.8445 73.2628 83.1994 72.8265 83.1994ZM83.1496 84.6023L76.5417 81.9816V77.1771C76.5417 76.61 76.4103 76.0742 76.182 75.593C77.2695 74.8336 78.5595 74.4232 79.914 74.4232C80.4455 74.4232 80.9705 74.4904 81.4806 74.6158C82.5601 78.0605 85.5605 80.6619 89.2208 81.1643C86.7777 81.4994 84.6296 82.7695 83.1496 84.6023Z" fill="#943EB2"/>
<path d="M69.3589 81.4553C70.359 81.2628 71.0138 80.2959 70.8213 79.2958C70.6288 78.2956 69.662 77.6408 68.6618 77.8333C67.6616 78.0258 67.0069 78.9927 67.1994 79.9928C67.3919 80.993 68.3587 81.6477 69.3589 81.4553Z" fill="#943EB2"/>
</g>
<defs>
<clipPath id="clip0">
<rect width="100" height="100" fill="white"/>
</clipPath>
</defs>
</svg>
