<svg width="40" height="40" viewBox="0 0 40 40" fill="none" xmlns="http://www.w3.org/2000/svg">
    <path d="M20.3937 40.0013C20.2612 40.0013 20.1288 40.0013 19.9954 40.0007C16.86 40.0083 13.963 39.9287 11.1456 39.7572C8.56262 39.6 6.20483 38.7074 4.32678 37.176C2.51465 35.6983 1.27716 33.7004 0.648804 31.2382C0.101929 29.0946 0.072937 26.9905 0.045166 24.9552C0.0250244 23.495 0.00427246 21.7646 0 20.005C0.00427246 18.238 0.0250244 16.5077 0.045166 15.0474C0.072937 13.0125 0.101929 10.9083 0.648804 8.76444C1.27716 6.30229 2.51465 4.3043 4.32678 2.82664C6.20483 1.29527 8.56262 0.402628 11.1459 0.245463C13.9633 0.0742591 16.861 -0.00569694 20.003 0.00193246C23.1393 -0.00478141 26.0355 0.0742591 28.8528 0.245463C31.4358 0.402628 33.7936 1.29527 35.6717 2.82664C37.4841 4.3043 38.7213 6.30229 39.3497 8.76444C39.8965 10.908 39.9255 13.0125 39.9533 15.0474C39.9734 16.5077 39.9945 18.238 39.9985 19.9977C39.9945 21.7646 39.9734 23.495 39.9533 24.9552C39.9417 25.8183 39.2288 26.508 38.3697 26.4964C37.5067 26.4845 36.817 25.7752 36.8286 24.9125C36.8484 23.4608 36.8695 21.7417 36.8735 19.9977C36.8695 18.2609 36.8484 16.5418 36.8286 15.0901C36.8033 13.2374 36.777 11.3215 36.3217 9.53715C35.8624 7.73722 34.9792 6.29435 33.6969 5.24851C32.3099 4.11723 30.6161 3.48338 28.663 3.36466C25.9119 3.19743 23.0798 3.12022 20.003 3.12663C16.9189 3.1193 14.0866 3.19743 11.3354 3.36466C9.38232 3.48338 7.6889 4.11723 6.30157 5.24821C5.01923 6.29405 4.13605 7.73692 3.67676 9.53715C3.22143 11.3215 3.19519 13.2374 3.16986 15.0901C3.15002 16.5418 3.12927 18.2609 3.125 20.005C3.12927 21.7417 3.15002 23.4608 3.16986 24.9125C3.19519 26.7652 3.22143 28.6811 3.67676 30.4655C4.13605 32.2654 5.01923 33.7083 6.30157 34.7541C7.6889 35.8854 9.38232 36.5193 11.3354 36.638C14.0866 36.8052 16.9196 36.8833 19.9957 36.8757C23.0801 36.883 25.9119 36.8052 28.663 36.638C30.6161 36.5193 32.3096 35.8854 33.6969 34.7541C34.6207 34.0006 35.3424 33.0338 35.842 31.8803C36.185 31.0887 37.1048 30.7246 37.8967 31.0676C38.6887 31.4106 39.0524 32.3304 38.7097 33.1223C38.0093 34.7395 36.9873 36.1033 35.6717 37.176C33.7936 38.7077 31.4358 39.6 28.8528 39.7572C26.1548 39.9214 23.3832 40.0013 20.3937 40.0013ZM29.6866 20.0013C29.6866 14.6165 25.3058 10.2357 19.921 10.2357C14.5364 10.2357 10.1553 14.6165 10.1553 20.0013C10.1553 25.3861 14.5364 29.7669 19.921 29.7669C25.3058 29.7669 29.6866 25.3861 29.6866 20.0013ZM26.5616 20.0013C26.5616 23.6628 23.5828 26.6419 19.921 26.6419C16.2595 26.6419 13.2803 23.6628 13.2803 20.0013C13.2803 16.3398 16.2595 13.3607 19.921 13.3607C23.5828 13.3607 26.5616 16.3398 26.5616 20.0013ZM30.7803 7.1107C29.4861 7.1107 28.4366 8.15989 28.4366 9.45445C28.4366 10.749 29.4861 11.7982 30.7803 11.7982C32.0749 11.7982 33.1241 10.749 33.1241 9.45445C33.1241 8.15989 32.0749 7.1107 30.7803 7.1107Z" fill="white"/>
</svg>
