<svg width="44" height="60" viewBox="0 0 44 60" fill="none" xmlns="http://www.w3.org/2000/svg">
<path d="M22 0C10.3631 0 0.906265 9.45703 0.906265 21.0937C0.906265 25.0312 1.99634 28.8634 4.07045 32.1681L20.5701 59.1697C20.8516 59.6268 21.2735 59.9081 21.7658 59.9784C22.4335 60.0838 23.1721 59.8027 23.5587 59.1347L40.1056 31.8867C42.0741 28.6525 43.0938 24.8907 43.0938 21.0937C43.0938 9.45703 33.637 0 22 0ZM22 31.6406C16.094 31.6406 11.4531 26.8594 11.4531 21.0937C11.4531 15.2929 16.1991 10.5469 22 10.5469C27.8009 10.5469 32.5469 15.2929 32.5469 21.0937C32.5469 26.8242 27.9765 31.6406 22 31.6406Z" fill="#6C1787"/>
<path d="M22.0711 -0.191895V10.355C27.872 10.355 32.618 15.101 32.618 20.9019C32.618 26.6323 28.0475 31.4487 22.0711 31.4487V59.807C22.671 59.821 23.2878 59.5334 23.6297 58.9428L40.1765 31.6948C42.1452 28.4606 43.1648 24.6988 43.1648 20.9019C43.1648 9.26513 33.708 -0.191895 22.0711 -0.191895Z" fill="#943EB2"/>
</svg>
