<svg width="82" height="76" viewBox="0 0 82 76" fill="none" xmlns="http://www.w3.org/2000/svg">
    <g filter="url(#filter0_d)">
        <circle cx="38" cy="38" r="21" fill="#FFA41D" fill-opacity="0.55"/>
    </g>
    <path d="M36.0948 70H45.1465C45.723 70.0003 46.2929 69.8802 46.8186 69.6477C46.8983 69.7567 47.0032 69.8455 47.1246 69.9068C47.2461 69.9681 47.3807 70 47.5172 70H77.6896C77.8819 70 78.0686 69.9368 78.2201 69.8205C78.3717 69.7042 78.4793 69.5414 78.5259 69.3581L79.2248 66.6102H80.2758C80.5045 66.6102 80.7237 66.5209 80.8854 66.362C81.0471 66.203 81.1379 65.9875 81.1379 65.7627V62.3729C81.1379 62.1481 81.0471 61.9326 80.8854 61.7736C80.7237 61.6147 80.5045 61.5254 80.2758 61.5254H78.0925C78.7595 60.7945 79.1967 59.8894 79.3514 58.9194C79.5061 57.9494 79.3716 56.9561 78.9643 56.0597C78.5569 55.1632 77.894 54.402 77.0559 53.868C76.2177 53.334 75.2401 53.0502 74.2413 53.0508H65.6207V36.8432C65.6187 35.4271 65.0928 34.0601 64.1411 32.9971C63.1894 31.934 61.8768 31.2476 60.4483 31.0658V28.4746C60.4483 28.2498 60.3574 28.0343 60.1958 27.8753C60.0341 27.7164 59.8148 27.6271 59.5862 27.6271V20.8475C59.5862 20.6227 59.4954 20.4071 59.3337 20.2482C59.172 20.0893 58.9528 20 58.7241 20H50.319C49.8047 20.0006 49.3117 20.2017 48.9481 20.5591C48.5844 20.9166 48.3799 21.4013 48.3793 21.9068V23.3898C48.3793 23.6146 48.4701 23.8301 48.6318 23.9891C48.7935 24.148 49.0127 24.2373 49.2414 24.2373H52.6896V27.6271C52.461 27.6271 52.2417 27.7164 52.0801 27.8753C51.9184 28.0343 51.8276 28.2498 51.8276 28.4746V31.0658C50.399 31.2476 49.0864 31.934 48.1347 32.9971C47.183 34.0601 46.6572 35.4271 46.6552 36.8432V45.708C46.1752 45.52 45.6632 45.4236 45.1465 45.4237C44.8608 45.4234 44.5869 45.3117 44.3849 45.1131C44.1829 44.9145 44.0693 44.6453 44.069 44.3644V43.7288C44.2976 43.7288 44.5169 43.6395 44.6785 43.4806C44.8402 43.3217 44.931 43.1061 44.931 42.8814V39.4915C44.931 39.2668 44.8402 39.0512 44.6785 38.8923C44.5169 38.7334 44.2976 38.6441 44.069 38.6441H37.1724C36.9438 38.6441 36.7245 38.7334 36.5628 38.8923C36.4012 39.0512 36.3103 39.2668 36.3103 39.4915V42.8814C36.3103 43.1061 36.4012 43.3217 36.5628 43.4806C36.7245 43.6395 36.9438 43.7288 37.1724 43.7288V44.3644C37.1721 44.6453 37.0585 44.9145 36.8564 45.1131C36.6544 45.3117 36.3805 45.4234 36.0948 45.4237C35.0092 45.4249 33.9684 45.8494 33.2007 46.6041C32.433 47.3587 32.0012 48.3819 32 49.4492V65.9746C32.0012 67.0418 32.433 68.065 33.2007 68.8196C33.9684 69.5743 35.0092 69.9988 36.0948 70ZM48.3793 46.9828V44.5763H57V56.4407H49.2414V49.4492C49.242 48.5555 48.9386 47.6873 48.3793 46.9828ZM77.0166 68.3051H65.6207V66.6102H77.4476L77.0166 68.3051ZM79.4138 64.9153H65.6207V63.2203H79.4138V64.9153ZM74.2413 54.7458C75.1559 54.7458 76.033 55.1029 76.6796 55.7386C77.3263 56.3743 77.6896 57.2366 77.6896 58.1356C77.6896 59.0346 77.3263 59.8969 76.6796 60.5326C76.033 61.1683 75.1559 61.5254 74.2413 61.5254H65.6207V54.7458H74.2413ZM53.5517 29.322H58.7241V31.0169H53.5517V29.322ZM50.1034 22.5424V21.9068C50.1034 21.8506 50.1261 21.7967 50.1666 21.757C50.207 21.7172 50.2618 21.6949 50.319 21.6949H52.6896V22.5424H50.1034ZM54.4138 21.6949H57.8621V27.6271H54.4138V21.6949ZM52.5819 32.7119H59.6939C60.8082 32.7131 61.8764 33.1488 62.6642 33.9233C63.4521 34.6978 63.8953 35.7479 63.8965 36.8432V68.3051H48.4821C48.9765 67.6253 49.242 66.8103 49.2414 65.9746V58.1356H57.8621C58.0907 58.1356 58.31 58.0463 58.4716 57.8874C58.6333 57.7285 58.7241 57.5129 58.7241 57.2881V43.7288C58.7241 43.5041 58.6333 43.2885 58.4716 43.1296C58.31 42.9706 58.0907 42.8814 57.8621 42.8814H48.3793V36.8432C48.3806 35.7479 48.8237 34.6978 49.6116 33.9233C50.3995 33.1488 51.4677 32.7131 52.5819 32.7119ZM38.0345 40.339H43.2069V42.0339H38.0345V40.339ZM36.0948 47.1186C36.8376 47.1178 37.5498 46.8274 38.075 46.3111C38.6003 45.7947 38.8957 45.0946 38.8965 44.3644V43.7288H42.3448V44.3644C42.3456 45.0946 42.6411 45.7947 43.1663 46.3111C43.6916 46.8274 44.4037 47.1178 45.1465 47.1186C45.7751 47.1193 46.3776 47.3651 46.8221 47.802C47.2665 48.2389 47.5165 48.8313 47.5172 49.4492V65.9746C47.5165 66.5925 47.2665 67.1848 46.8221 67.6217C46.3776 68.0586 45.7751 68.3044 45.1465 68.3051H36.0948C35.4663 68.3044 34.8637 68.0586 34.4193 67.6217C33.9748 67.1848 33.7248 66.5925 33.7241 65.9746V64.0678H41.4828C41.7114 64.0678 41.9307 63.9785 42.0923 63.8196C42.254 63.6607 42.3448 63.4451 42.3448 63.2203V51.3559C42.3448 51.1312 42.254 50.9156 42.0923 50.7567C41.9307 50.5978 41.7114 50.5085 41.4828 50.5085H33.7241V49.4492C33.7248 48.8313 33.9748 48.2389 34.4193 47.802C34.8637 47.3651 35.4663 47.1193 36.0948 47.1186ZM33.7241 52.2034H40.6207V62.3729H33.7241V52.2034Z" fill="#943EB2"/>
    <defs>
        <filter id="filter0_d" x="0" y="0" width="76" height="76" filterUnits="userSpaceOnUse" color-interpolation-filters="sRGB">
            <feFlood flood-opacity="0" result="BackgroundImageFix"/>
            <feColorMatrix in="SourceAlpha" type="matrix" values="0 0 0 0 0 0 0 0 0 0 0 0 0 0 0 0 0 0 127 0"/>
            <feMorphology radius="7" operator="dilate" in="SourceAlpha" result="effect1_dropShadow"/>
            <feOffset/>
            <feGaussianBlur stdDeviation="5"/>
            <feColorMatrix type="matrix" values="0 0 0 0 1 0 0 0 0 0.645 0 0 0 0 0.1125 0 0 0 0.84 0"/>
            <feBlend mode="normal" in2="BackgroundImageFix" result="effect1_dropShadow"/>
            <feBlend mode="normal" in="SourceGraphic" in2="effect1_dropShadow" result="shape"/>
        </filter>
    </defs>
</svg>
