<svg width="100" height="109" viewBox="0 0 100 109" fill="none" xmlns="http://www.w3.org/2000/svg">
<g clip-path="url(#clip0)">
<path d="M26.991 36.0957C32.6898 36.0957 37.3263 30.5785 37.3263 23.7966C37.3263 17.0148 32.69 11.4976 26.991 11.4976C21.292 11.4976 16.6556 17.0148 16.6556 23.7966C16.6556 30.5785 21.292 36.0957 26.991 36.0957ZM26.991 14.9839C31.0744 14.9839 34.3967 18.9372 34.3967 23.7966C34.3967 28.6559 31.0746 32.6094 26.991 32.6094C22.9074 32.6094 19.5853 28.6561 19.5853 23.7966C19.5853 18.9374 22.9074 14.9839 26.991 14.9839Z" fill="#943EB2"/>
<path d="M52.8123 36.0957C56.9375 36.0957 60.6619 33.183 62.3006 28.6752C62.6219 27.7917 62.2803 26.7656 61.5377 26.3832C60.7953 26.0007 59.933 26.4074 59.6117 27.2911C58.4373 30.5217 55.7683 32.6094 52.8123 32.6094C48.7287 32.6094 45.4066 28.6561 45.4066 23.7966C45.4066 18.9372 48.7287 14.9839 52.8123 14.9839C55.7761 14.9839 58.448 17.0789 59.6189 20.3212C59.9385 21.2058 60.8 21.6142 61.5431 21.2344C62.2865 20.8542 62.6299 19.8292 62.3105 18.9446C60.6767 14.4207 56.9484 11.4976 52.8123 11.4976C47.1133 11.4976 42.4769 17.0148 42.4769 23.7966C42.4769 30.5785 47.1135 36.0957 52.8123 36.0957Z" fill="#943EB2"/>
<path d="M9.35879 32.822C3.65977 32.822 -0.976562 38.3393 -0.976562 45.1211C-0.976562 51.9027 3.65977 57.4202 9.35879 57.4202C15.0578 57.4202 19.6941 51.9029 19.6941 45.1211C19.6939 38.3393 15.0576 32.822 9.35879 32.822ZM9.35879 53.9338C5.27519 53.9338 1.95312 49.9803 1.95312 45.1211C1.95312 40.2616 5.27519 36.3083 9.35879 36.3083C13.4424 36.3083 16.7645 40.2616 16.7645 45.1211C16.7643 49.9803 13.4422 53.9338 9.35879 53.9338Z" fill="#943EB2"/>
<path d="M70.4445 57.4202C76.1433 57.4202 80.7798 51.9029 80.7798 45.1211C80.7798 38.3393 76.1435 32.822 70.4445 32.822C64.7455 32.822 60.1091 38.3393 60.1091 45.1211C60.1091 51.9027 64.7457 57.4202 70.4445 57.4202ZM70.4445 36.3083C74.5279 36.3083 77.8501 40.2616 77.8501 45.1211C77.8501 49.9803 74.5281 53.9338 70.4445 53.9338C66.3609 53.9338 63.0388 49.9806 63.0388 45.1211C63.0388 40.2616 66.3611 36.3083 70.4445 36.3083Z" fill="#943EB2"/>
<path d="M97.7813 69.9901C97.4243 69.1258 96.5462 68.7699 95.8206 69.1941C95.0944 69.6187 94.795 70.6632 95.1516 71.5274C96.8856 75.7279 96.1821 80.7736 93.4012 84.083L76.4665 104.235C76.2028 104.549 75.7741 104.549 75.5106 104.235L58.5758 84.0828C54.9922 79.8183 54.9922 72.8794 58.5758 68.6149C62.1596 64.3504 67.9905 64.3507 71.5741 68.6149L74.9526 72.6351C75.5247 73.3159 76.4522 73.3159 77.0241 72.6351L80.4026 68.6149C83.145 65.3515 87.3413 64.4885 90.8442 66.4673C91.5754 66.8806 92.4489 66.5099 92.7958 65.6401C93.1426 64.7704 92.8315 63.7308 92.1006 63.3178C87.4811 60.7081 81.9475 61.8463 78.3311 66.1498L75.9883 68.9375L73.6456 66.1498C69.662 61.4094 63.5727 60.6651 58.9276 63.9165C58.7106 63.6996 58.4891 63.4888 58.2624 63.2892C55.6184 60.9589 53.8891 57.6441 53.3928 53.9558C52.876 50.1127 51.2149 46.5878 48.7157 44.0307C47.2557 42.5369 45.5719 41.4429 43.7108 40.7791C42.936 40.503 42.1194 41.0262 41.8872 41.9484C41.6549 42.8707 42.0948 43.8422 42.8698 44.1186C44.3348 44.6413 45.6592 45.501 46.8057 46.6743C48.809 48.724 50.0866 51.4326 50.5 54.5069C51.1182 59.1009 53.2555 63.2148 56.5186 66.0906C56.5256 66.0968 56.5323 66.1038 56.5395 66.1101C56.528 66.1238 56.5157 66.1364 56.5042 66.1501C51.7782 71.774 51.7782 80.9244 56.5042 86.5483L56.7483 86.8389C55.0268 88.4447 52.9407 89.4118 50.7764 89.588C49.1374 89.7216 47.5413 89.4353 46.0342 88.7375C42.4471 87.0766 38.4969 87.0766 34.9114 88.7373C33.4012 89.4366 31.8016 89.7228 30.1586 89.5873C24.8016 89.1459 20.442 84.0126 20.018 77.6466C19.7418 73.5013 21.0782 69.5513 23.6844 66.8094C26.5629 63.7817 28.3758 59.643 28.7891 55.1558C29.0895 51.8942 30.4088 48.902 32.5041 46.7305C33.71 45.4808 35.112 44.582 36.6707 44.0593C37.4495 43.7983 37.9028 42.8354 37.6834 41.9087C37.4641 40.9823 36.6553 40.4421 35.8762 40.7036C33.8973 41.3672 32.1153 42.5102 30.5801 44.1014C27.9278 46.8498 26.2575 50.6408 25.8766 54.776C25.543 58.399 24.0752 61.745 21.744 64.1975C18.4413 67.672 16.7475 72.6744 17.0973 77.9222C17.6352 85.9956 23.1633 92.5058 29.9561 93.0652C30.2897 93.0926 30.6213 93.1064 30.952 93.1064C32.6805 93.1064 34.3659 92.731 35.9739 91.9861C38.8747 90.6429 42.0702 90.6431 44.9719 91.9865C46.8834 92.8716 48.9034 93.2349 50.9762 93.0662C53.8432 92.833 56.5979 91.5089 58.8303 89.3167L73.4389 106.701C74.1418 107.537 75.0651 107.956 75.9883 107.956C76.9116 107.956 77.835 107.537 78.5377 106.701L95.4725 86.5486C99.1401 82.1839 100.068 75.5299 97.7813 69.9901Z" fill="#943EB2"/>
</g>
<defs>
<clipPath id="clip0">
<rect width="100" height="119" fill="white" transform="translate(-0.976562 0.226562)"/>
</clipPath>
</defs>
</svg>
