<svg width="100" height="100" viewBox="0 0 100 100" fill="none" xmlns="http://www.w3.org/2000/svg">
<path d="M72.4138 76.2711H78.5963C79.5962 76.2737 80.5866 76.0814 81.5103 75.7053C82.434 75.3291 83.2727 74.7766 83.9778 74.0798C84.3011 73.7619 84.4828 73.3308 84.4828 72.8812C84.4828 72.4317 84.3011 72.0006 83.9778 71.6827C83.6545 71.3649 83.2159 71.1863 82.7586 71.1863C82.3013 71.1863 81.8628 71.3649 81.5394 71.6827C81.1538 72.0639 80.6952 72.366 80.19 72.5718C79.6848 72.7775 79.1431 72.8827 78.5963 72.8812H72.4138C71.9565 72.8812 71.518 73.0598 71.1946 73.3777C70.8713 73.6955 70.6897 74.1266 70.6897 74.5762C70.6897 75.0257 70.8713 75.4568 71.1946 75.7746C71.518 76.0925 71.9565 76.2711 72.4138 76.2711Z" fill="#943EB2"/>
<path d="M77.5862 49.1526C76.2222 49.1526 74.8888 49.5502 73.7547 50.2952C72.6206 51.0401 71.7366 52.099 71.2146 53.3378C70.6926 54.5766 70.5561 55.9398 70.8222 57.2549C71.0883 58.57 71.7451 59.778 72.7096 60.7262C73.6741 61.6743 74.903 62.32 76.2408 62.5816C77.5786 62.8432 78.9652 62.709 80.2254 62.1958C81.4856 61.6827 82.5627 60.8137 83.3205 59.6988C84.0783 58.5839 84.4828 57.2731 84.4828 55.9322C84.4807 54.1348 83.7534 52.4115 82.4605 51.1405C81.1676 49.8695 79.4147 49.1546 77.5862 49.1526ZM77.5862 59.3221C76.9042 59.3221 76.2375 59.1233 75.6704 58.7508C75.1034 58.3783 74.6614 57.8489 74.4004 57.2295C74.1394 56.6101 74.0711 55.9285 74.2042 55.2709C74.3372 54.6134 74.6657 54.0094 75.1479 53.5353C75.6302 53.0612 76.2446 52.7384 76.9135 52.6076C77.5824 52.4768 78.2757 52.5439 78.9058 52.8005C79.5359 53.057 80.0744 53.4915 80.4533 54.049C80.8322 54.6064 81.0345 55.2618 81.0345 55.9322C81.0334 56.831 80.6698 57.6926 80.0233 58.328C79.3769 58.9635 78.5004 59.321 77.5862 59.3221Z" fill="#943EB2"/>
<path d="M94.8276 40.678C93.8046 40.678 92.8045 40.9762 91.9539 41.5349C91.1033 42.0936 90.4404 42.8878 90.0489 43.8169C89.6574 44.746 89.555 45.7684 89.7545 46.7547C89.9541 47.7411 90.4467 48.6471 91.1701 49.3582C91.8935 50.0693 92.8151 50.5536 93.8185 50.7498C94.8218 50.946 95.8618 50.8453 96.807 50.4604C97.7521 50.0756 98.5599 49.4238 99.1283 48.5877C99.6966 47.7515 100 46.7684 100 45.7627C99.9984 44.4146 99.453 43.1222 98.4833 42.1689C97.5136 41.2157 96.1989 40.6795 94.8276 40.678ZM94.8276 47.4576C94.4866 47.4576 94.1532 47.3582 93.8697 47.172C93.5862 46.9858 93.3652 46.721 93.2347 46.4113C93.1042 46.1016 93.07 45.7608 93.1366 45.4321C93.2031 45.1033 93.3673 44.8013 93.6084 44.5642C93.8495 44.3272 94.1568 44.1658 94.4912 44.1004C94.8257 44.035 95.1723 44.0685 95.4874 44.1968C95.8024 44.3251 96.0717 44.5424 96.2611 44.8211C96.4506 45.0998 96.5517 45.4275 96.5517 45.7627C96.5512 46.2121 96.3694 46.6429 96.0462 46.9607C95.7229 47.2784 95.2847 47.4571 94.8276 47.4576Z" fill="#943EB2"/>
<path d="M77.5862 25.4236C76.2222 25.4236 74.8888 25.8212 73.7547 26.5662C72.6206 27.3111 71.7366 28.37 71.2146 29.6088C70.6926 30.8476 70.5561 32.2108 70.8222 33.5259C71.0883 34.841 71.7451 36.049 72.7096 36.9972C73.6741 37.9453 74.903 38.591 76.2408 38.8526C77.5786 39.1142 78.9652 38.98 80.2254 38.4668C81.4856 37.9537 82.5627 37.0847 83.3205 35.9698C84.0783 34.8549 84.4828 33.5441 84.4828 32.2032C84.4807 30.4058 83.7534 28.6825 82.4605 27.4115C81.1676 26.1405 79.4147 25.4256 77.5862 25.4236ZM77.5862 35.5931C76.9042 35.5931 76.2375 35.3943 75.6704 35.0218C75.1034 34.6493 74.6614 34.1199 74.4004 33.5005C74.1394 32.8811 74.0711 32.1995 74.2042 31.5419C74.3372 30.8844 74.6657 30.2803 75.1479 29.8063C75.6302 29.3322 76.2446 29.0093 76.9135 28.8785C77.5824 28.7478 78.2757 28.8149 78.9058 29.0714C79.5359 29.328 80.0744 29.7625 80.4533 30.32C80.8322 30.8774 81.0345 31.5328 81.0345 32.2032C81.0334 33.102 80.6698 33.9636 80.0233 34.599C79.3769 35.2345 78.5004 35.592 77.5862 35.5931Z" fill="#943EB2"/>
<path d="M8.18965 100H26.2931C27.446 100.001 28.5859 99.7604 29.6373 99.2953C29.7966 99.5134 30.0063 99.691 30.2493 99.8136C30.4923 99.9361 30.7614 100 31.0345 100H91.3793C91.7638 100 92.1373 99.8736 92.4404 99.641C92.7434 99.4084 92.9587 99.0828 93.0519 98.7161L94.4496 93.2203H96.5517C97.009 93.2203 97.4475 93.0418 97.7709 92.7239C98.0942 92.4061 98.2759 91.9749 98.2759 91.5254V84.7458C98.2759 84.2962 98.0942 83.8651 97.7709 83.5473C97.4475 83.2294 97.009 83.0508 96.5517 83.0508H92.1851C93.519 81.5891 94.3935 79.7788 94.7029 77.8388C95.0123 75.8988 94.7433 73.9122 93.9286 72.1193C93.1138 70.3264 91.7881 68.8039 90.1118 67.736C88.4354 66.6681 86.4803 66.1004 84.4827 66.1017H67.2414V33.6864C67.2374 30.8543 66.1856 28.1202 64.2822 25.9941C62.3788 23.8681 59.7537 22.4952 56.8965 22.1316V16.9492C56.8965 16.4996 56.7149 16.0685 56.3916 15.7507C56.0682 15.4328 55.6297 15.2542 55.1724 15.2542V1.69492C55.1724 1.2454 54.9908 0.814287 54.6674 0.496429C54.3441 0.178571 53.9055 0 53.4483 0H36.6379C35.6094 0.00117751 34.6234 0.40334 33.8962 1.11827C33.1689 1.83319 32.7598 2.8025 32.7586 3.81356V6.77966C32.7586 7.22918 32.9403 7.66029 33.2636 7.97815C33.5869 8.29601 34.0255 8.47458 34.4828 8.47458H41.3793V15.2542C40.922 15.2542 40.4835 15.4328 40.1602 15.7507C39.8368 16.0685 39.6552 16.4996 39.6552 16.9492V22.1316C36.798 22.4952 34.1729 23.8681 32.2695 25.9941C30.3661 28.1202 29.3143 30.8543 29.3103 33.6864V51.4161C28.3504 51.0401 27.3264 50.8471 26.2931 50.8475C25.7217 50.8468 25.1739 50.6234 24.7699 50.2262C24.3658 49.829 24.1386 49.2905 24.1379 48.7288V47.4576C24.5952 47.4576 25.0337 47.2791 25.3571 46.9612C25.6804 46.6433 25.8621 46.2122 25.8621 45.7627V38.9831C25.8621 38.5335 25.6804 38.1024 25.3571 37.7846C25.0337 37.4667 24.5952 37.2881 24.1379 37.2881H10.3448C9.88756 37.2881 9.44902 37.4667 9.12568 37.7846C8.80234 38.1024 8.62069 38.5335 8.62069 38.9831V45.7627C8.62069 46.2122 8.80234 46.6433 9.12568 46.9612C9.44902 47.2791 9.88756 47.4576 10.3448 47.4576V48.7288C10.3442 49.2905 10.1169 49.829 9.7129 50.2262C9.30886 50.6234 8.76105 50.8468 8.18965 50.8475C6.01838 50.8499 3.93673 51.6989 2.4014 53.2082C0.866077 54.7175 0.00245281 56.7638 0 58.8983V91.9492C0.00245281 94.0836 0.866077 96.13 2.4014 97.6393C3.93673 99.1486 6.01838 99.9976 8.18965 100ZM32.7586 53.9657V49.1525H50V72.8814H34.4828V58.8983C34.484 57.111 33.8771 55.3747 32.7586 53.9657ZM90.0332 96.6102H67.2414V93.2203H90.8952L90.0332 96.6102ZM94.8276 89.8305H67.2414V86.4407H94.8276V89.8305ZM84.4827 69.4915C86.3118 69.4915 88.066 70.2058 89.3593 71.4772C90.6527 72.7487 91.3793 74.4731 91.3793 76.2712C91.3793 78.0693 90.6527 79.7937 89.3593 81.0651C88.066 82.3366 86.3118 83.0508 84.4827 83.0508H67.2414V69.4915H84.4827ZM43.1034 18.6441H53.4483V22.0339H43.1034V18.6441ZM36.2069 5.08475V3.81356C36.2069 3.70118 36.2523 3.5934 36.3331 3.51394C36.414 3.43447 36.5236 3.38983 36.6379 3.38983H41.3793V5.08475H36.2069ZM44.8276 3.38983H51.7241V15.2542H44.8276V3.38983ZM41.1638 25.4237H55.3879C57.6163 25.4262 59.7528 26.2975 61.3285 27.8465C62.9042 29.3956 63.7906 31.4958 63.7931 33.6864V96.6102H32.9642C33.9531 95.2505 34.4841 93.6206 34.4828 91.9492V76.2712H51.7241C52.1814 76.2712 52.6199 76.0926 52.9433 75.7748C53.2666 75.4569 53.4483 75.0258 53.4483 74.5763V47.4576C53.4483 47.0081 53.2666 46.577 52.9433 46.2591C52.6199 45.9413 52.1814 45.7627 51.7241 45.7627H32.7586V33.6864C32.7611 31.4958 33.6475 29.3956 35.2232 27.8465C36.7989 26.2975 38.9354 25.4262 41.1638 25.4237ZM12.069 40.678H22.4138V44.0678H12.069V40.678ZM8.18965 54.2373C9.67527 54.2357 11.0996 53.6548 12.1501 52.6221C13.2006 51.5894 13.7914 50.1893 13.7931 48.7288V47.4576H20.6897V48.7288C20.6913 50.1893 21.2822 51.5894 22.3327 52.6221C23.3832 53.6548 24.8075 54.2357 26.2931 54.2373C27.5502 54.2387 28.7553 54.7302 29.6442 55.604C30.5331 56.4778 31.0331 57.6626 31.0345 58.8983V91.9492C31.0331 93.1849 30.5331 94.3696 29.6442 95.2434C28.7553 96.1172 27.5502 96.6088 26.2931 96.6102H8.18965C6.9326 96.6088 5.72744 96.1172 4.83857 95.2434C3.9497 94.3696 3.4497 93.1849 3.44828 91.9492V88.1356H18.9655C19.4228 88.1356 19.8613 87.957 20.1847 87.6392C20.508 87.3213 20.6897 86.8902 20.6897 86.4407V62.7119C20.6897 62.2623 20.508 61.8312 20.1847 61.5134C19.8613 61.1955 19.4228 61.017 18.9655 61.017H3.44828V58.8983C3.4497 57.6626 3.9497 56.4778 4.83857 55.604C5.72744 54.7302 6.9326 54.2387 8.18965 54.2373ZM3.44828 64.4068H17.2414V84.7458H3.44828V64.4068Z" fill="#943EB2"/>
<path d="M58.6207 77.9661C59.078 77.9661 59.5165 77.7875 59.8398 77.4697C60.1632 77.1518 60.3448 76.7207 60.3448 76.2712V74.5763C60.3448 74.1267 60.1632 73.6956 59.8398 73.3778C59.5165 73.0599 59.078 72.8813 58.6207 72.8813C58.1634 72.8813 57.7249 73.0599 57.4015 73.3778C57.0782 73.6956 56.8966 74.1267 56.8966 74.5763V76.2712C56.8966 76.7207 57.0782 77.1518 57.4015 77.4697C57.7249 77.7875 58.1634 77.9661 58.6207 77.9661Z" fill="#943EB2"/>
<path d="M58.6207 89.8305C59.078 89.8305 59.5165 89.652 59.8398 89.3341C60.1632 89.0162 60.3448 88.5851 60.3448 88.1356V83.0509C60.3448 82.6014 60.1632 82.1702 59.8398 81.8524C59.5165 81.5345 59.078 81.356 58.6207 81.356C58.1634 81.356 57.7249 81.5345 57.4015 81.8524C57.0782 82.1702 56.8966 82.6014 56.8966 83.0509V88.1356C56.8966 88.5851 57.0782 89.0162 57.4015 89.3341C57.7249 89.652 58.1634 89.8305 58.6207 89.8305Z" fill="#943EB2"/>
</svg>
